<?xml version="1.0" encoding="UTF-8" standalone="no"?>
<svg
   xmlns="http://www.w3.org/2000/svg"
   xmlns:xlink="http://www.w3.org/1999/xlink"
   width="256"
   height="256"
   id="svg2985"
   version="1.1">
  <defs
     id="defs2987">
    <linearGradient
       id="linearGradient3939">
      <stop
         style="stop-color:#da5651;stop-opacity:1;"
         offset="0"
         id="stop3941" />
      <stop
         style="stop-color:#b72c27;stop-opacity:1;"
         offset="1"
         id="stop3943" />
    </linearGradient>
    <linearGradient
       id="linearGradient3931">
      <stop
         style="stop-color:#b72c27;stop-opacity:1;"
         offset="0"
         id="stop3933" />
      <stop
         style="stop-color:#b72c27;stop-opacity:0;"
         offset="1"
         id="stop3935" />
    </linearGradient>
    <linearGradient
       id="linearGradient3773">
      <stop
         style="stop-color:#ffffff;stop-opacity:1;"
         offset="0"
         id="stop3775" />
      <stop
         style="stop-color:#dadada;stop-opacity:1;"
         offset="1"
         id="stop3777" />
    </linearGradient>
    <radialGradient
       xlink:href="#linearGradient3773"
       id="radialGradient3929"
       gradientUnits="userSpaceOnUse"
       cx="74.5"
       cy="201.5"
       fx="74.5"
       fy="201.5"
       r="48.5" />
    <radialGradient
       xlink:href="#linearGradient3939"
       id="radialGradient3945"
       cx="153"
       cy="104"
       fx="153"
       fy="104"
       r="81"
       gradientUnits="userSpaceOnUse" />
    <radialGradient
       xlink:href="#linearGradient3773"
       id="radialGradient3986"
       gradientUnits="userSpaceOnUse"
       gradientTransform="translate(-26.6875,-226)"
       cx="74.5"
       cy="201.5"
       fx="74.5"
       fy="201.5"
       r="48.5" />
  </defs>
  <g
     id="layer1"
     transform="translate(0,192)">
    <path
       style="fill:url(#radialGradient3945);fill-opacity:1;stroke:#000000;stroke-width:5;stroke-linecap:square;stroke-miterlimit:4;stroke-opacity:1;stroke-dasharray:none;stroke-dashoffset:0"
       id="path2997"
       d="m 246,132 c 0,44.18278 -35.81722,80 -80,80 -44.18278,0 -80,-35.81722 -80,-80 0,-44.18278 35.81722,-80 80,-80 44.18278,0 80,35.81722 80,80 z"
       transform="translate(-38,-217)" />
    <path
       style="fill:url(#radialGradient3986);fill-opacity:1;stroke:#000000;stroke-width:5;stroke-linecap:square;stroke-miterlimit:4;stroke-opacity:1;stroke-dashoffset:0;stroke-dasharray:none"
       d="m 104.3125,-10.5 c 0,26.23353 -21.26647,47.5 -47.5,47.5 -26.233526,0 -47.5,-21.26647 -47.5,-47.5 0,-26.23353 21.266474,-47.5 47.5,-47.5 12.705636,0 47.5,30.084654 47.5,47.5 z"
       id="path2999"
    />
    <use
       x="0"
       y="0"
       xlink:href="#path2999"
       id="use3771"
       width="256"
       height="256"
       transform="matrix(-1,0,0,1,256,0)" />
  </g>
</svg>
